# File created by Blade
# Date/Time:  Thu Sep 25 19:32:06 2014
# Frame Rate: 120.000 fps
#------------------------------------------------------
:FULLY-SPECIFIED
:DEGREES
816
root -11.051254 32.242721 -9.062999 5.581780 10.279201 7.930906
Spine -7.130059 1.470500 -35.348243
Head 33.663191 17.619396 17.059351
LeftShoulder -7.071300 24.150590 7.989000
LeftArm 18.847225 29.374541 -55.531913
LeftForeArm 13.387676 -0.000000 13.395305
LeftHand -29.242749 -0.000000 2.624718
LeftHandThumb1 -26.253704 0.000000 33.147579
RightShoulder -18.366743 22.674447 -48.969486
RightArm 23.052340 39.119277 23.520558
RightForeArm 22.579252 -0.000000 42.164819
RightHand 4.893216 -0.000000 1.794233
RightHandThumb1 -24.326973 -0.000000 -32.862282
LeftUpLeg 8.252741 -4.547162 -11.767012
LeftLeg -5.569251 -0.000000 0.000000
LeftFoot -10.436154 3.071369 -12.110361
LeftToeBase 6.077302 -0.000000 -0.000000
RightUpLeg -12.030411 -4.909247 11.056958
RightLeg 18.450213 -0.000000 -0.000000
RightFoot -11.749492 -8.560024 -1.951294
RightToeBase -9.012955 -0.000000 0.000000
817
root -11.049155 32.241799 -9.090650 5.681356 10.204114 7.984295
Spine -7.048296 1.529957 -35.341178
Head 34.395912 18.245745 17.402765
LeftShoulder -7.146179 24.171370 7.919122
LeftArm 18.953453 29.367722 -55.469076
LeftForeArm 13.261976 -0.000000 13.366644
LeftHand -29.135105 -0.000000 2.690543
LeftHandThumb1 -26.253704 0.000000 33.147579
RightShoulder -18.387544 22.652975 -48.978632
RightArm 22.942667 39.054109 23.514817
RightForeArm 22.625027 0.000000 42.201296
RightHand 4.921564 -0.000000 1.786634
RightHandThumb1 -24.326973 -0.000000 -32.862282
LeftUpLeg 8.117869 -4.562120 -11.831061
LeftLeg -5.589664 -0.000000 0.000000
LeftFoot -10.423724 3.125744 -12.085449
LeftToeBase 6.133505 -0.000000 -0.000000
RightUpLeg -12.182239 -4.908096 11.010367
RightLeg 18.489044 -0.000000 -0.000000
RightFoot -11.744519 -8.534970 -1.995100
RightToeBase -9.071243 -0.000000 0.000000
818
root -11.048882 32.241448 -9.116445 5.763194 10.128171 8.013807
Spine -6.966127 1.570593 -35.307866
Head 35.114914 18.905827 17.689019
LeftShoulder -7.222983 24.203313 7.844450
LeftArm 19.022585 29.376171 -55.413217
LeftForeArm 13.060339 0.000000 13.385960
LeftHand -29.132036 0.000000 3.024400
LeftHandThumb1 -26.253704 0.000000 33.147579
RightShoulder -18.362571 22.770582 -49.077876
RightArm 22.652997 38.917706 23.520324
RightForeArm 22.547083 0.000000 42.325966
RightHand 4.852343 -0.000000 1.915442
RightHandThumb1 -24.326973 -0.000000 -32.862282
LeftUpLeg 7.996089 -4.593783 -11.872283
LeftLeg -5.584442 -0.000000 0.000000
LeftFoot -10.384411 3.122276 -12.079472
LeftToeBase 6.171831 -0.000000 -0.000000
RightUpLeg -12.301238 -4.884097 10.986798
RightLeg 18.493453 -0.000000 -0.000000
RightFoot -11.736904 -8.504393 -2.008151
RightToeBase -9.038423 -0.000000 0.000000
819
root -11.046420 32.241481 -9.142044 5.837181 10.060463 8.046456
Spine -6.859134 1.627123 -35.277794
Head 35.716762 19.435523 17.889809
LeftShoulder -7.308575 24.249532 7.767759
LeftArm 19.137203 29.359488 -55.357754
LeftForeArm 12.987181 -0.000000 13.360727
LeftHand -29.070962 -0.000000 3.116448
LeftHandThumb1 -26.253704 0.000000 33.147579
RightShoulder -18.390505 22.811234 -49.114514
RightArm 22.536527 38.789340 23.535873
RightForeArm 22.516861 0.000000 42.364385
RightHand 4.791288 -0.000000 1.770057
RightHandThumb1 -24.326973 -0.000000 -32.862282
LeftUpLeg 7.877922 -4.594172 -11.914309
LeftLeg -5.604563 -0.000000 0.000000
LeftFoot -10.369572 3.210540 -12.074726
LeftToeBase 6.110925 -0.000000 -0.000000
RightUpLeg -12.402149 -4.872886 10.955713
RightLeg 18.482217 -0.000000 -0.000000
RightFoot -11.733852 -8.499277 -2.106685
RightToeBase -8.992440 -0.000000 0.000000
820
root -11.045925 32.241267 -9.165872 5.894296 9.971902 8.073050
Spine -6.740517 1.695291 -35.251239
Head 36.240920 19.975250 18.057481
LeftShoulder -7.409740 24.282433 7.688985
LeftArm 19.208088 29.289007 -55.320738
LeftForeArm 13.084391 0.000000 13.391463
LeftHand -29.154128 -0.000000 2.656801
LeftHandThumb1 -26.253704 0.000000 33.147579
RightShoulder -18.405816 22.721878 -49.064595
RightArm 22.540736 38.794934 23.572269
RightForeArm 22.518239 -0.000000 42.353748
RightHand 4.812835 -0.000000 1.790652
RightHandThumb1 -24.326973 -0.000000 -32.862282
LeftUpLeg 7.780720 -4.585765 -11.951511
LeftLeg -5.615218 -0.000000 0.000000
LeftFoot -10.355582 3.250122 -12.086380
LeftToeBase 6.100702 -0.000000 -0.000000
RightUpLeg -12.474401 -4.853735 10.932275
RightLeg 18.446117 -0.000000 -0.000000
RightFoot -11.719547 -8.481421 -2.155064
RightToeBase -9.016685 -0.000000 0.000000
